<?xml version="1.0" encoding="iso-8859-1"?>
<!-- Uploaded to: SVG Repo, www.svgrepo.com, Generator: SVG Repo Mixer Tools -->
<svg height="800px" width="800px" version="1.1" id="Layer_1" xmlns="http://www.w3.org/2000/svg" xmlns:xlink="http://www.w3.org/1999/xlink" 
	 viewBox="0 0 512 512" xml:space="preserve">
<path style="fill:#5192C9;" d="M352.865,69.189H20.757C9.293,69.189,0,78.483,0,89.946v332.108c0,11.463,9.293,20.757,20.757,20.757
	h332.108c11.463,0,20.757-9.293,20.757-20.757V89.946C373.622,78.483,364.328,69.189,352.865,69.189z"/>
<g>
	<path style="fill:#C0FCFF;" d="M269.838,27.676c-11.463,0-20.757,9.293-20.757,20.757v415.135c0,11.463,9.293,20.757,20.757,20.757
		c11.463,0,20.757-9.293,20.757-20.757V48.432C290.595,36.969,281.301,27.676,269.838,27.676z"/>
	<path style="fill:#C0FCFF;" d="M186.811,27.676c-11.463,0-20.757,9.293-20.757,20.757v415.135c0,11.463,9.293,20.757,20.757,20.757
		c11.463,0,20.757-9.293,20.757-20.757V48.432C207.568,36.969,198.274,27.676,186.811,27.676z"/>
	<path style="fill:#C0FCFF;" d="M103.784,27.676c-11.463,0-20.757,9.293-20.757,20.757v415.135c0,11.463,9.293,20.757,20.757,20.757
		s20.757-9.293,20.757-20.757V48.432C124.541,36.969,115.247,27.676,103.784,27.676z"/>
	<path style="fill:#C0FCFF;" d="M20.757,27.676C9.293,27.676,0,36.969,0,48.432v415.135c0,11.463,9.293,20.757,20.757,20.757
		s20.757-9.293,20.757-20.757V48.432C41.514,36.969,32.22,27.676,20.757,27.676z"/>
	<path style="fill:#C0FCFF;" d="M491.243,27.676H352.865c-11.463,0-20.757,9.293-20.757,20.757v415.135
		c0,11.463,9.293,20.757,20.757,20.757h138.378c11.463,0,20.757-9.293,20.757-20.757V48.432
		C512,36.969,502.707,27.676,491.243,27.676z"/>
</g>
<path style="fill:#89D2E8;" d="M491.243,27.676h-69.189v456.649h69.189c11.463,0,20.757-9.293,20.757-20.757V48.432
	C512,36.969,502.707,27.676,491.243,27.676z"/>
<path style="fill:#DA3981;" d="M422.055,401.303c-5.466,0-10.807-2.228-14.681-6.089c-3.861-3.861-6.076-9.202-6.076-14.668
	s2.215-10.821,6.076-14.682c3.875-3.861,9.215-6.075,14.681-6.075c5.466,0,10.807,2.214,14.67,6.075
	c3.875,3.861,6.087,9.216,6.087,14.682c0,5.466-2.214,10.807-6.087,14.668C432.863,399.075,427.521,401.303,422.055,401.303z"/>
<path style="fill:#A91E62;" d="M436.725,365.864c-3.861-3.861-9.202-6.075-14.669-6.075c-0.001,0-0.001,0-0.001,0v41.513
	c0,0,0,0,0.001,0c5.466,0,10.807-2.228,14.669-6.089c3.875-3.861,6.087-9.202,6.087-14.668
	C442.812,375.08,440.598,369.725,436.725,365.864z"/>
</svg>