<?xml version="1.0" encoding="iso-8859-1"?>
<!-- Uploaded to: SVG Repo, www.svgrepo.com, Generator: SVG Repo Mixer Tools -->
<svg height="800px" width="800px" version="1.1" id="Layer_1" xmlns="http://www.w3.org/2000/svg" xmlns:xlink="http://www.w3.org/1999/xlink" 
	 viewBox="0 0 503.467 503.467" xml:space="preserve">
<g transform="translate(9 9)">
	<path style="fill:#ECF4F7;" d="M370.733,242.733c0-70.827-57.173-128-128-128c-70.827,0-128,57.173-128,128s57.173,128,128,128
		S370.733,313.56,370.733,242.733 M242.733,63.533c98.987,0,179.2,80.213,179.2,179.2s-80.213,179.2-179.2,179.2
		s-179.2-80.213-179.2-179.2S143.747,63.533,242.733,63.533"/>
	<path style="fill:#AAB1BA;" d="M242.733,217.133c14.507,0,25.6,11.093,25.6,25.6c0,14.507-11.093,25.6-25.6,25.6
		c-14.507,0-25.6-11.093-25.6-25.6C217.133,228.227,228.227,217.133,242.733,217.133"/>
	<path style="fill:#FFE079;" d="M114.733,80.6c18.773,0,34.133,15.36,34.133,34.133s-15.36,34.133-34.133,34.133
		S80.6,133.507,80.6,114.733S95.96,80.6,114.733,80.6"/>
	<path style="fill:#ECF4F7;" d="M268.333,242.733c0-14.507-11.093-25.6-25.6-25.6c-14.507,0-25.6,11.093-25.6,25.6
		c0,14.507,11.093,25.6,25.6,25.6C257.24,268.333,268.333,257.24,268.333,242.733 M242.733,165.933c42.667,0,76.8,34.133,76.8,76.8
		s-34.133,76.8-76.8,76.8s-76.8-34.133-76.8-76.8S200.067,165.933,242.733,165.933"/>
	<path style="fill:#7EE1E6;" d="M242.733,370.733c70.827,0,128-57.173,128-128s-57.173-128-128-128c-70.827,0-128,57.173-128,128
		S171.907,370.733,242.733,370.733z M242.733,319.533c42.667,0,76.8-34.133,76.8-76.8s-34.133-76.8-76.8-76.8
		s-76.8,34.133-76.8,76.8S200.067,319.533,242.733,319.533z"/>
</g>
<path style="fill:#51565F;" d="M251.733,503.467c-2.56,0-4.267-1.707-4.267-4.267V384c-69.12-2.56-125.44-58.027-128-128H4.267
	C1.707,256,0,254.293,0,251.733s1.707-4.267,4.267-4.267h115.2c0.853-23.893,7.68-46.933,20.48-66.56
	c0.853-1.707,4.267-2.56,5.973-1.707c1.707,0.853,2.56,4.267,1.707,5.973C134.827,204.8,128,227.84,128,251.733
	c0,68.267,55.467,123.733,123.733,123.733S375.467,320,375.467,251.733S320,128,251.734,128c-23.04,0-46.08,6.827-65.707,18.773
	c-1.707,0.853-4.267,0.853-5.973-1.707c-0.853-1.707-0.853-4.267,1.707-5.973c19.627-12.8,42.667-19.627,65.707-20.48V4.267
	c0-2.56,1.707-4.267,4.267-4.267S256,1.707,256,4.267v115.2c69.12,2.56,125.44,58.027,128,128h115.2c2.56,0,4.267,1.707,4.267,4.267
	S501.76,256,499.2,256H384c-2.56,69.12-58.027,125.44-128,128v115.2C256,501.76,254.293,503.467,251.733,503.467z M285.867,431.787
	c-1.707,0-3.413-1.707-4.267-3.413c-0.853-2.56,0.853-4.267,3.413-5.12c69.12-13.653,124.587-69.12,138.24-138.24
	c0.853-2.56,2.56-3.413,5.12-3.413c2.56,0.853,3.413,2.56,3.413,5.12C418.133,359.254,359.253,418.133,285.867,431.787
	C286.72,431.787,285.867,431.787,285.867,431.787z M217.6,431.787C217.6,431.787,216.747,431.787,217.6,431.787
	C144.213,417.28,85.333,359.254,71.68,286.72c-0.853-2.56,0.853-4.267,3.413-5.12c2.56-0.853,4.267,0.853,5.12,3.413
	c13.653,69.12,69.12,124.587,138.24,138.24c2.56,0.853,3.413,2.56,3.413,5.12C221.013,430.933,219.307,431.787,217.6,431.787z
	 M251.733,332.8c-44.373,0-81.067-36.693-81.067-81.067s36.693-81.067,81.067-81.067S332.8,207.36,332.8,251.733
	S296.107,332.8,251.733,332.8z M251.733,179.2c-40.107,0-72.533,32.427-72.533,72.533s32.427,72.533,72.533,72.533
	s72.533-32.427,72.533-72.533S291.84,179.2,251.733,179.2z M251.733,281.6c-16.213,0-29.867-13.653-29.867-29.867
	s13.653-29.867,29.867-29.867S281.6,235.52,281.6,251.733S267.947,281.6,251.733,281.6z M251.733,230.4
	c-11.947,0-21.333,9.387-21.333,21.333s9.387,21.333,21.333,21.333c11.947,0,21.333-9.387,21.333-21.333S263.68,230.4,251.733,230.4
	z M75.947,221.867h-0.853c-2.56-0.853-3.413-2.56-3.413-5.12c2.56-15.36,7.68-29.867,14.507-44.373
	c0.853-1.707,3.413-2.56,5.12-2.56c1.707,0.853,3.413,3.413,2.56,5.12L80.213,217.6C79.36,221.013,77.653,221.867,75.947,221.867z
	 M427.52,221.867c-1.707,0-3.413-1.707-4.267-3.413c-13.653-69.12-69.12-125.44-138.24-138.24c-2.56-0.853-3.413-2.56-3.413-5.12
	c0.853-2.56,2.56-3.413,5.12-3.413c72.533,13.653,131.413,72.533,145.067,145.067C432.64,219.307,430.933,221.867,427.52,221.867
	C428.373,221.867,428.373,221.867,427.52,221.867z M123.733,162.133c-21.333,0-38.4-17.067-38.4-38.4s17.067-38.4,38.4-38.4
	s38.4,17.067,38.4,38.4S145.067,162.133,123.733,162.133z M123.733,93.867c-16.213,0-29.867,13.653-29.867,29.867
	S107.52,153.6,123.733,153.6s29.867-13.653,29.867-29.867S139.947,93.867,123.733,93.867z M174.933,93.867
	c-1.707,0-3.413-0.853-4.267-2.56c-0.853-1.707,0-4.267,2.56-5.12c13.653-6.827,28.16-11.093,43.52-14.507
	c2.56-0.853,4.267,0.853,5.12,3.413c0.853,2.56-0.853,4.267-2.56,5.12L176.64,93.867C175.787,93.867,175.787,93.867,174.933,93.867z
	"/>
</svg>